<?xml version="1.0" encoding="UTF-8"?>
<svg xmlns="http://www.w3.org/2000/svg" xmlns:xlink="http://www.w3.org/1999/xlink" viewBox="0 0 679.79 411.42">
  <defs>
    <style>
      .cls-1 {
        stroke-dasharray: 0 0 1.07 3.2;
      }

      .cls-1, .cls-2, .cls-3, .cls-4, .cls-5, .cls-6 {
        fill: none;
      }

      .cls-1, .cls-7, .cls-4, .cls-8, .cls-6 {
        stroke: #000;
      }

      .cls-1, .cls-3, .cls-4, .cls-5, .cls-6 {
        stroke-linejoin: round;
      }

      .cls-1, .cls-3, .cls-5, .cls-6 {
        stroke-width: 1.07px;
      }

      .cls-9 {
        clip-path: url(#clippath-2);
      }

      .cls-10 {
        fill: #1a1a1a;
        font-size: 20px;
      }

      .cls-10, .cls-11 {
        font-family: Arial-BoldMT, Arial;
        font-weight: 700;
      }

      .cls-12 {
        letter-spacing: -.03em;
      }

      .cls-12, .cls-13, .cls-14, .cls-15, .cls-16 {
        font-family: ArialMT, Arial;
      }

      .cls-12, .cls-14 {
        font-size: 11.54px;
      }

      .cls-2, .cls-17, .cls-18, .cls-19 {
        stroke-width: 0px;
      }

      .cls-7, .cls-18 {
        fill: #cc031a;
      }

      .cls-7, .cls-8 {
        stroke-miterlimit: 10;
      }

      .cls-13 {
        font-size: 11px;
      }

      .cls-20 {
        clip-path: url(#clippath-1);
      }

      .cls-3, .cls-5 {
        stroke: #333;
      }

      .cls-17 {
        fill: #fff;
      }

      .cls-4 {
        stroke-width: .71px;
      }

      .cls-4, .cls-5 {
        stroke-linecap: round;
      }

      .cls-21 {
        clip-path: url(#clippath);
      }

      .cls-8, .cls-19 {
        fill: #caff70;
      }

      .cls-22 {
        clip-path: url(#clippath-3);
      }

      .cls-15 {
        font-size: 14.1px;
      }

      .cls-16 {
        fill: #4d4d4d;
        font-size: 9px;
      }

      .cls-11 {
        font-size: 16px;
      }

      .cls-23 {
        letter-spacing: -.01em;
      }
    </style>
    <clipPath id="clippath">
      <rect class="cls-2" x="75.04" y="26.5" width="280.22" height="142.33"/>
    </clipPath>
    <clipPath id="clippath-1">
      <rect class="cls-2" x="399.04" y="206.38" width="280.22" height="142.33"/>
    </clipPath>
    <clipPath id="clippath-2">
      <rect class="cls-2" x="75.04" y="206.38" width="280.22" height="142.33"/>
    </clipPath>
    <clipPath id="clippath-3">
      <rect class="cls-2" x="399.04" y="26.5" width="280.22" height="142.33"/>
    </clipPath>
  </defs>
  <g id="_Ядро" data-name="Ядро">
    <g class="cls-21">
      <rect class="cls-17" x="75.04" y="26.5" width="280.22" height="142.33"/>
      <path class="cls-19" d="m150.57,81.21c0-1.37,1.12-2.49,2.49-2.49s2.49,1.12,2.49,2.49-1.12,2.49-2.49,2.49-2.49-1.12-2.49-2.49"/>
      <path class="cls-4" d="m150.57,81.21c0-1.37,1.12-2.49,2.49-2.49s2.49,1.12,2.49,2.49-1.12,2.49-2.49,2.49-2.49-1.12-2.49-2.49"/>
      <path class="cls-19" d="m151.28,78.57c0-1.36,1.12-2.48,2.49-2.48s2.49,1.12,2.49,2.48-1.12,2.49-2.49,2.49-2.49-1.12-2.49-2.49"/>
      <path class="cls-4" d="m151.28,78.57c0-1.36,1.12-2.48,2.49-2.48s2.49,1.12,2.49,2.48-1.12,2.49-2.49,2.49-2.49-1.12-2.49-2.49"/>
      <path class="cls-19" d="m156.09,81.39c0-1.37,1.12-2.49,2.49-2.49s2.48,1.12,2.48,2.49-1.12,2.48-2.48,2.48-2.49-1.12-2.49-2.48"/>
      <path class="cls-4" d="m156.09,81.39c0-1.37,1.12-2.49,2.49-2.49s2.48,1.12,2.48,2.49-1.12,2.48-2.48,2.48-2.49-1.12-2.49-2.48"/>
      <path class="cls-19" d="m140.99,81.83c0-1.36,1.12-2.48,2.49-2.48s2.48,1.12,2.48,2.48-1.12,2.49-2.48,2.49-2.49-1.12-2.49-2.49"/>
      <path class="cls-4" d="m140.99,81.83c0-1.36,1.12-2.48,2.49-2.48s2.48,1.12,2.48,2.48-1.12,2.49-2.48,2.49-2.49-1.12-2.49-2.49"/>
      <path class="cls-19" d="m141.65,78.96c0-1.37,1.12-2.49,2.49-2.49s2.48,1.12,2.48,2.49-1.12,2.49-2.48,2.49-2.49-1.12-2.49-2.49"/>
      <path class="cls-4" d="m141.65,78.96c0-1.37,1.12-2.49,2.49-2.49s2.48,1.12,2.48,2.49-1.12,2.49-2.48,2.49-2.49-1.12-2.49-2.49"/>
      <path class="cls-19" d="m146.56,74.35c0-1.36,1.12-2.48,2.49-2.48s2.48,1.12,2.48,2.48-1.11,2.49-2.48,2.49-2.49-1.12-2.49-2.49"/>
      <path class="cls-4" d="m146.56,74.35c0-1.36,1.12-2.48,2.49-2.48s2.48,1.12,2.48,2.48-1.11,2.49-2.48,2.49-2.49-1.12-2.49-2.49"/>
      <path class="cls-19" d="m126.32,85.98c0-1.37,1.12-2.49,2.48-2.49s2.49,1.12,2.49,2.49-1.12,2.49-2.49,2.49-2.48-1.12-2.48-2.49"/>
      <path class="cls-4" d="m126.32,85.98c0-1.37,1.12-2.49,2.48-2.49s2.49,1.12,2.49,2.49-1.12,2.49-2.49,2.49-2.48-1.12-2.48-2.49"/>
      <path class="cls-18" d="m306.1,73.68c0-1.37,1.12-2.49,2.48-2.49s2.49,1.12,2.49,2.49-1.12,2.49-2.49,2.49-2.48-1.12-2.48-2.49"/>
      <path class="cls-4" d="m306.1,73.68c0-1.37,1.12-2.49,2.48-2.49s2.49,1.12,2.49,2.49-1.12,2.49-2.49,2.49-2.48-1.12-2.48-2.49"/>
      <path class="cls-18" d="m280.04,48.26c0-1.37,1.12-2.49,2.49-2.49s2.49,1.12,2.49,2.49-1.12,2.49-2.49,2.49-2.49-1.12-2.49-2.49"/>
      <path class="cls-4" d="m280.04,48.26c0-1.37,1.12-2.49,2.49-2.49s2.49,1.12,2.49,2.49-1.12,2.49-2.49,2.49-2.49-1.12-2.49-2.49"/>
      <path class="cls-18" d="m299.41,48.68c0-1.37,1.12-2.49,2.49-2.49s2.49,1.12,2.49,2.49-1.12,2.49-2.49,2.49-2.49-1.12-2.49-2.49"/>
      <path class="cls-4" d="m299.41,48.68c0-1.37,1.12-2.49,2.49-2.49s2.49,1.12,2.49,2.49-1.12,2.49-2.49,2.49-2.49-1.12-2.49-2.49"/>
      <path class="cls-18" d="m283.18,54.51c0-1.37,1.12-2.49,2.49-2.49s2.49,1.12,2.49,2.49-1.12,2.49-2.49,2.49-2.49-1.12-2.49-2.49"/>
      <path class="cls-4" d="m283.18,54.51c0-1.37,1.12-2.49,2.49-2.49s2.49,1.12,2.49,2.49-1.12,2.49-2.49,2.49-2.49-1.12-2.49-2.49"/>
      <path class="cls-18" d="m299.62,50.38c0-1.37,1.12-2.49,2.49-2.49s2.49,1.12,2.49,2.49-1.12,2.49-2.49,2.49-2.49-1.12-2.49-2.49"/>
      <path class="cls-4" d="m299.62,50.38c0-1.37,1.12-2.49,2.49-2.49s2.49,1.12,2.49,2.49-1.12,2.49-2.49,2.49-2.49-1.12-2.49-2.49"/>
      <path class="cls-18" d="m300.12,55.82c0-1.37,1.12-2.49,2.49-2.49s2.48,1.12,2.48,2.49-1.12,2.49-2.48,2.49-2.49-1.12-2.49-2.49"/>
      <path class="cls-4" d="m300.12,55.82c0-1.37,1.12-2.49,2.49-2.49s2.48,1.12,2.48,2.49-1.12,2.49-2.48,2.49-2.49-1.12-2.49-2.49"/>
      <path class="cls-18" d="m297.7,58.59c0-1.36,1.12-2.48,2.49-2.48s2.49,1.12,2.49,2.48-1.12,2.49-2.49,2.49-2.49-1.12-2.49-2.49"/>
      <path class="cls-4" d="m297.7,58.59c0-1.36,1.12-2.48,2.49-2.48s2.49,1.12,2.49,2.48-1.12,2.49-2.49,2.49-2.49-1.12-2.49-2.49"/>
      <polygon class="cls-19" points="152.11 101.34 155.47 107.14 148.76 107.14 152.11 101.34"/>
      <polygon class="cls-4" points="152.11 101.34 155.47 107.14 148.76 107.14 152.11 101.34"/>
      <polygon class="cls-19" points="139.55 91.35 142.9 97.15 136.2 97.15 139.55 91.35"/>
      <polygon class="cls-4" points="139.55 91.35 142.9 97.15 136.2 97.15 139.55 91.35"/>
      <polygon class="cls-19" points="148.84 92.1 152.19 97.9 145.49 97.9 148.84 92.1"/>
      <polygon class="cls-4" points="148.84 92.1 152.19 97.9 145.49 97.9 148.84 92.1"/>
      <polygon class="cls-19" points="135.63 85.71 138.98 91.52 132.28 91.52 135.63 85.71"/>
      <polygon class="cls-4" points="135.63 85.71 138.98 91.52 132.28 91.52 135.63 85.71"/>
      <polygon class="cls-19" points="141.19 94.4 144.54 100.2 137.84 100.2 141.19 94.4"/>
      <polygon class="cls-4" points="141.19 94.4 144.54 100.2 137.84 100.2 141.19 94.4"/>
      <polygon class="cls-19" points="143.6 85.06 146.95 90.86 140.24 90.86 143.6 85.06"/>
      <polygon class="cls-4" points="143.6 85.06 146.95 90.86 140.24 90.86 143.6 85.06"/>
      <polygon class="cls-19" points="133.73 87.91 137.08 93.72 130.38 93.72 133.73 87.91"/>
      <polygon class="cls-4" points="133.73 87.91 137.08 93.72 130.38 93.72 133.73 87.91"/>
      <polygon class="cls-18" points="246.25 135.73 249.6 141.54 242.9 141.54 246.25 135.73"/>
      <polygon class="cls-4" points="246.25 135.73 249.6 141.54 242.9 141.54 246.25 135.73"/>
      <polygon class="cls-18" points="270.15 136.13 273.5 141.94 266.8 141.94 270.15 136.13"/>
      <polygon class="cls-4" points="270.15 136.13 273.5 141.94 266.8 141.94 270.15 136.13"/>
      <polygon class="cls-18" points="272.73 143.63 276.08 149.43 269.38 149.43 272.73 143.63"/>
      <polygon class="cls-4" points="272.73 143.63 276.08 149.43 269.38 149.43 272.73 143.63"/>
      <polygon class="cls-18" points="243.15 123.67 246.5 129.47 239.79 129.47 243.15 123.67"/>
      <polygon class="cls-4" points="243.15 123.67 246.5 129.47 239.79 129.47 243.15 123.67"/>
      <polygon class="cls-18" points="270.38 131.24 273.73 137.05 267.03 137.05 270.38 131.24"/>
      <polygon class="cls-4" points="270.38 131.24 273.73 137.05 267.03 137.05 270.38 131.24"/>
      <polygon class="cls-18" points="266.58 142.89 269.93 148.69 263.23 148.69 266.58 142.89"/>
      <polygon class="cls-4" points="266.58 142.89 269.93 148.69 263.23 148.69 266.58 142.89"/>
      <polygon class="cls-18" points="288.79 130.1 292.14 135.91 285.44 135.91 288.79 130.1"/>
      <polygon class="cls-4" points="288.79 130.1 292.14 135.91 285.44 135.91 288.79 130.1"/>
      <polyline class="cls-6" points="173.12 76.4 172.93 75.46 172.37 74.59 171.44 73.8 170.17 73.11 168.56 72.53 166.64 72.07 164.45 71.72 162.01 71.51 159.36 71.43 156.55 71.48 153.61 71.67 150.59 71.98 147.54 72.42 144.5 72.98 141.51 73.65 138.63 74.41 135.9 75.27 133.35 76.2 131.03 77.19 128.97 78.22 127.21 79.29 125.76 80.37 124.66 81.45 123.91 82.51 123.54 83.53 123.54 84.51 123.91 85.42 124.66 86.25 125.76 86.99 127.21 87.62 128.97 88.15 131.03 88.55 133.35 88.83 135.9 88.98 138.63 88.99 141.51 88.87 144.5 88.62 147.54 88.25 150.59 87.75 153.61 87.13 156.55 86.41 159.36 85.6 162.01 84.71 164.45 83.75 166.64 82.73 168.56 81.68 170.17 80.6 171.44 79.52 172.37 78.45 172.93 77.41 173.12 76.4"/>
      <polyline class="cls-6" points="323.89 63.99 323.69 61.59 323.1 59.08 322.13 56.5 320.8 53.9 319.11 51.3 317.11 48.77 314.82 46.32 312.27 44 309.5 41.84 306.56 39.88 303.48 38.14 300.33 36.65 297.13 35.44 293.95 34.52 290.83 33.91 287.81 33.62 284.95 33.64 282.29 33.98 279.86 34.64 277.71 35.6 275.86 36.86 274.35 38.38 273.2 40.15 272.42 42.14 272.03 44.33 272.03 46.67 272.42 49.13 273.2 51.68 274.35 54.28 275.86 56.88 277.71 59.45 279.86 61.95 282.29 64.34 284.95 66.58 287.81 68.64 290.83 70.5 293.95 72.11 297.13 73.46 300.33 74.53 303.48 75.3 306.56 75.75 309.5 75.89 312.27 75.7 314.82 75.2 317.11 74.39 319.11 73.28 320.8 71.89 322.13 70.24 323.1 68.35 323.69 66.26 323.89 63.99"/>
      <polyline class="cls-6" points="159.93 105.04 159.79 103.6 159.37 102.03 158.67 100.35 157.71 98.58 156.5 96.76 155.06 94.9 153.41 93.04 151.58 91.21 149.59 89.43 147.47 87.73 145.26 86.14 142.99 84.67 140.69 83.36 138.4 82.23 136.15 81.28 133.99 80.53 131.93 80 130.01 79.7 128.27 79.62 126.72 79.77 125.39 80.15 124.3 80.75 123.47 81.56 122.91 82.57 122.63 83.77 122.63 85.13 122.91 86.64 123.47 88.27 124.3 89.99 125.39 91.79 126.72 93.64 128.27 95.5 130.01 97.35 131.93 99.16 133.99 100.9 136.15 102.55 138.4 104.08 140.69 105.47 142.99 106.7 145.26 107.74 147.47 108.59 149.59 109.23 151.58 109.65 153.41 109.84 155.06 109.8 156.5 109.54 157.71 109.05 158.67 108.34 159.37 107.43 159.79 106.32 159.93 105.04"/>
      <polyline class="cls-6" points="307.68 144 307.37 141.62 306.43 139.2 304.88 136.79 302.75 134.41 300.06 132.12 296.86 129.94 293.19 127.9 289.11 126.03 284.69 124.37 279.99 122.94 275.07 121.76 270.03 120.84 264.92 120.21 259.84 119.87 254.85 119.83 250.03 120.08 245.46 120.63 241.2 121.47 237.32 122.57 233.88 123.94 230.93 125.53 228.51 127.34 226.67 129.34 225.42 131.48 224.79 133.75 224.79 136.1 225.42 138.51 226.67 140.93 228.51 143.32 230.93 145.66 233.88 147.91 237.32 150.02 241.2 151.98 245.46 153.74 250.03 155.29 254.85 156.6 259.84 157.65 264.92 158.43 270.03 158.91 275.07 159.1 279.99 159 284.69 158.6 289.11 157.9 293.19 156.93 296.86 155.69 300.06 154.21 302.75 152.5 304.88 150.6 306.43 148.53 307.37 146.31 307.68 144"/>
      <line class="cls-1" x1="213.11" y1="168.83" x2="213.11" y2="26.5"/>
      <line class="cls-1" x1="75.04" y1="92.42" x2="355.26" y2="92.42"/>
      <rect class="cls-5" x="75.04" y="26.5" width="280.22" height="142.33"/>
    </g>
    <g class="cls-20">
      <rect class="cls-17" x="399.04" y="206.38" width="280.22" height="142.33"/>
      <path class="cls-19" d="m477.86,272.24c0-1.37,1.12-2.49,2.48-2.49s2.49,1.12,2.49,2.49-1.12,2.49-2.49,2.49-2.48-1.12-2.48-2.49"/>
      <path class="cls-4" d="m477.86,272.24c0-1.37,1.12-2.49,2.48-2.49s2.49,1.12,2.49,2.49-1.12,2.49-2.49,2.49-2.48-1.12-2.48-2.49"/>
      <path class="cls-19" d="m487.69,269.32c0-1.37,1.12-2.49,2.49-2.49s2.49,1.12,2.49,2.49-1.12,2.49-2.49,2.49-2.49-1.12-2.49-2.49"/>
      <path class="cls-4" d="m487.69,269.32c0-1.37,1.12-2.49,2.49-2.49s2.49,1.12,2.49,2.49-1.12,2.49-2.49,2.49-2.49-1.12-2.49-2.49"/>
      <path class="cls-19" d="m492.28,273.48c0-1.37,1.12-2.49,2.49-2.49s2.49,1.12,2.49,2.49-1.12,2.49-2.49,2.49-2.49-1.12-2.49-2.49"/>
      <path class="cls-4" d="m492.28,273.48c0-1.37,1.12-2.49,2.49-2.49s2.49,1.12,2.49,2.49-1.12,2.49-2.49,2.49-2.49-1.12-2.49-2.49"/>
      <path class="cls-19" d="m470.4,272.28c0-1.37,1.12-2.49,2.49-2.49s2.49,1.12,2.49,2.49-1.12,2.49-2.49,2.49-2.49-1.12-2.49-2.49"/>
      <path class="cls-4" d="m470.4,272.28c0-1.37,1.12-2.49,2.49-2.49s2.49,1.12,2.49,2.49-1.12,2.49-2.49,2.49-2.49-1.12-2.49-2.49"/>
      <path class="cls-19" d="m471.75,273.99c0-1.37,1.12-2.49,2.49-2.49s2.48,1.12,2.48,2.49-1.12,2.49-2.48,2.49-2.49-1.12-2.49-2.49"/>
      <path class="cls-4" d="m471.75,273.99c0-1.37,1.12-2.49,2.49-2.49s2.48,1.12,2.48,2.49-1.12,2.49-2.48,2.49-2.49-1.12-2.49-2.49"/>
      <path class="cls-19" d="m491.32,271.4c0-1.37,1.12-2.49,2.49-2.49s2.49,1.12,2.49,2.49-1.12,2.49-2.49,2.49-2.49-1.12-2.49-2.49"/>
      <path class="cls-4" d="m491.32,271.4c0-1.37,1.12-2.49,2.49-2.49s2.49,1.12,2.49,2.49-1.12,2.49-2.49,2.49-2.49-1.12-2.49-2.49"/>
      <path class="cls-19" d="m471.98,273.15c0-1.37,1.12-2.49,2.49-2.49s2.49,1.12,2.49,2.49-1.12,2.49-2.49,2.49-2.49-1.12-2.49-2.49"/>
      <path class="cls-4" d="m471.98,273.15c0-1.37,1.12-2.49,2.49-2.49s2.49,1.12,2.49,2.49-1.12,2.49-2.49,2.49-2.49-1.12-2.49-2.49"/>
      <path class="cls-18" d="m570.68,259.46c0-1.37,1.12-2.49,2.49-2.49s2.48,1.12,2.48,2.49-1.12,2.49-2.48,2.49-2.49-1.12-2.49-2.49"/>
      <path class="cls-4" d="m570.68,259.46c0-1.37,1.12-2.49,2.49-2.49s2.48,1.12,2.48,2.49-1.12,2.49-2.48,2.49-2.49-1.12-2.49-2.49"/>
      <path class="cls-18" d="m566.79,259.61c0-1.37,1.12-2.49,2.48-2.49s2.49,1.12,2.49,2.49-1.12,2.48-2.49,2.48-2.48-1.12-2.48-2.48"/>
      <path class="cls-4" d="m566.79,259.61c0-1.37,1.12-2.49,2.48-2.49s2.49,1.12,2.49,2.49-1.12,2.48-2.49,2.48-2.48-1.12-2.48-2.48"/>
      <path class="cls-18" d="m570.29,241.39c0-1.37,1.12-2.49,2.48-2.49s2.49,1.12,2.49,2.49-1.12,2.49-2.49,2.49-2.48-1.12-2.48-2.49"/>
      <path class="cls-4" d="m570.29,241.39c0-1.37,1.12-2.49,2.48-2.49s2.49,1.12,2.49,2.49-1.12,2.49-2.49,2.49-2.48-1.12-2.48-2.49"/>
      <path class="cls-18" d="m609.43,269.78c0-1.37,1.12-2.49,2.49-2.49s2.49,1.12,2.49,2.49-1.12,2.49-2.49,2.49-2.49-1.12-2.49-2.49"/>
      <path class="cls-4" d="m609.43,269.78c0-1.37,1.12-2.49,2.49-2.49s2.49,1.12,2.49,2.49-1.12,2.49-2.49,2.49-2.49-1.12-2.49-2.49"/>
      <path class="cls-18" d="m607.24,257.34c0-1.37,1.12-2.49,2.48-2.49s2.49,1.12,2.49,2.49-1.12,2.49-2.49,2.49-2.48-1.12-2.48-2.49"/>
      <path class="cls-4" d="m607.24,257.34c0-1.37,1.12-2.49,2.48-2.49s2.49,1.12,2.49,2.49-1.12,2.49-2.49,2.49-2.48-1.12-2.48-2.49"/>
      <path class="cls-18" d="m623.35,266.24c0-1.37,1.12-2.49,2.49-2.49s2.49,1.12,2.49,2.49-1.12,2.49-2.49,2.49-2.49-1.12-2.49-2.49"/>
      <path class="cls-4" d="m623.35,266.24c0-1.37,1.12-2.49,2.49-2.49s2.49,1.12,2.49,2.49-1.12,2.49-2.49,2.49-2.49-1.12-2.49-2.49"/>
      <path class="cls-18" d="m606.42,266.49c0-1.36,1.12-2.48,2.49-2.48s2.49,1.12,2.49,2.48-1.12,2.49-2.49,2.49-2.49-1.12-2.49-2.49"/>
      <path class="cls-4" d="m606.42,266.49c0-1.36,1.12-2.48,2.49-2.48s2.49,1.12,2.49,2.48-1.12,2.49-2.49,2.49-2.49-1.12-2.49-2.49"/>
      <polygon class="cls-19" points="457.2 272.68 460.55 278.49 453.84 278.49 457.2 272.68"/>
      <polygon class="cls-4" points="457.2 272.68 460.55 278.49 453.84 278.49 457.2 272.68"/>
      <polygon class="cls-19" points="489.36 269.52 492.71 275.32 486.01 275.32 489.36 269.52"/>
      <polygon class="cls-4" points="489.36 269.52 492.71 275.32 486.01 275.32 489.36 269.52"/>
      <polygon class="cls-19" points="481.69 266.3 485.04 272.11 478.34 272.11 481.69 266.3"/>
      <polygon class="cls-4" points="481.69 266.3 485.04 272.11 478.34 272.11 481.69 266.3"/>
      <polygon class="cls-19" points="455.33 270.36 458.68 276.17 451.98 276.17 455.33 270.36"/>
      <polygon class="cls-4" points="455.33 270.36 458.68 276.17 451.98 276.17 455.33 270.36"/>
      <polygon class="cls-19" points="460.8 266.98 464.15 272.79 457.45 272.79 460.8 266.98"/>
      <polygon class="cls-4" points="460.8 266.98 464.15 272.79 457.45 272.79 460.8 266.98"/>
      <polygon class="cls-19" points="458.16 273.19 461.51 278.99 454.81 278.99 458.16 273.19"/>
      <polygon class="cls-4" points="458.16 273.19 461.51 278.99 454.81 278.99 458.16 273.19"/>
      <polygon class="cls-19" points="457.79 268.64 461.14 274.45 454.44 274.45 457.79 268.64"/>
      <polygon class="cls-4" points="457.79 268.64 461.14 274.45 454.44 274.45 457.79 268.64"/>
      <polygon class="cls-18" points="590.89 280.19 594.24 285.99 587.54 285.99 590.89 280.19"/>
      <polygon class="cls-4" points="590.89 280.19 594.24 285.99 587.54 285.99 590.89 280.19"/>
      <polygon class="cls-18" points="598.14 286.66 601.49 292.46 594.78 292.46 598.14 286.66"/>
      <polygon class="cls-4" points="598.14 286.66 601.49 292.46 594.78 292.46 598.14 286.66"/>
      <polygon class="cls-18" points="622.16 288.13 625.51 293.93 618.81 293.93 622.16 288.13"/>
      <polygon class="cls-4" points="622.16 288.13 625.51 293.93 618.81 293.93 622.16 288.13"/>
      <polygon class="cls-18" points="612.08 282.04 615.43 287.84 608.73 287.84 612.08 282.04"/>
      <polygon class="cls-4" points="612.08 282.04 615.43 287.84 608.73 287.84 612.08 282.04"/>
      <polygon class="cls-18" points="586.7 279.69 590.05 285.49 583.34 285.49 586.7 279.69"/>
      <polygon class="cls-4" points="586.7 279.69 590.05 285.49 583.34 285.49 586.7 279.69"/>
      <polygon class="cls-18" points="628.12 263.54 631.48 269.34 624.77 269.34 628.12 263.54"/>
      <polygon class="cls-4" points="628.12 263.54 631.48 269.34 624.77 269.34 628.12 263.54"/>
      <polygon class="cls-18" points="588.4 276.04 591.75 281.84 585.05 281.84 588.4 276.04"/>
      <polygon class="cls-4" points="588.4 276.04 591.75 281.84 585.05 281.84 588.4 276.04"/>
      <polyline class="cls-6" points="508.62 270.39 508.41 269.97 507.8 269.59 506.78 269.25 505.37 268.96 503.6 268.72 501.5 268.54 499.09 268.42 496.4 268.35 493.49 268.35 490.4 268.41 487.17 268.53 483.85 268.71 480.49 268.94 477.14 269.23 473.86 269.56 470.69 269.94 467.68 270.35 464.88 270.8 462.33 271.27 460.07 271.75 458.12 272.25 456.53 272.75 455.32 273.24 454.5 273.72 454.09 274.18 454.09 274.62 454.5 275.02 455.32 275.38 456.53 275.69 458.12 275.96 460.07 276.17 462.33 276.32 464.88 276.42 467.68 276.45 470.69 276.42 473.86 276.33 477.14 276.18 480.49 275.98 483.85 275.72 487.17 275.4 490.4 275.05 493.49 274.65 496.4 274.22 499.09 273.76 501.5 273.28 503.6 272.79 505.37 272.29 506.78 271.8 507.8 271.31 508.41 270.84 508.62 270.39"/>
      <polyline class="cls-6" points="665.83 276.21 665.32 273.82 663.8 271.25 661.3 268.53 657.85 265.71 653.5 262.83 648.32 259.93 642.39 257.06 635.8 254.26 628.65 251.58 621.04 249.04 613.1 246.7 604.94 244.59 596.68 242.73 588.46 241.17 580.39 239.91 572.6 238.99 565.21 238.41 558.33 238.19 552.05 238.32 546.49 238.8 541.72 239.64 537.81 240.81 534.83 242.29 532.81 244.07 531.8 246.12 531.8 248.4 532.81 250.89 534.83 253.54 537.81 256.31 541.72 259.17 546.49 262.07 552.05 264.96 558.33 267.8 565.21 270.55 572.6 273.16 580.39 275.6 588.46 277.83 596.68 279.82 604.94 281.53 613.1 282.95 621.04 284.04 628.65 284.79 635.8 285.19 642.39 285.24 648.32 284.93 653.5 284.27 657.85 283.27 661.3 281.94 663.8 280.3 665.32 278.38 665.83 276.21"/>
      <polyline class="cls-6" points="499.81 270.14 499.53 269.32 498.71 268.56 497.35 267.89 495.48 267.29 493.12 266.8 490.32 266.41 487.1 266.13 483.53 265.96 479.65 265.91 475.53 265.98 471.22 266.16 466.8 266.46 462.32 266.87 457.86 267.38 453.49 267.98 449.27 268.67 445.26 269.44 441.53 270.27 438.13 271.15 435.11 272.07 432.52 273.01 430.4 273.96 428.79 274.91 427.69 275.84 427.14 276.74 427.14 277.59 427.69 278.38 428.79 279.09 430.4 279.73 432.52 280.27 435.11 280.72 438.13 281.05 441.53 281.28 445.26 281.39 449.27 281.38 453.49 281.25 457.86 281.01 462.32 280.66 466.8 280.2 471.22 279.64 475.53 278.99 479.65 278.26 483.53 277.46 487.1 276.61 490.32 275.7 493.12 274.77 495.48 273.82 497.35 272.87 498.71 271.93 499.53 271.01 499.81 270.14"/>
      <polyline class="cls-6" points="643.44 286.43 643.11 284.26 642.12 282.1 640.5 279.98 638.25 277.93 635.43 275.98 632.07 274.17 628.21 272.52 623.93 271.05 619.29 269.79 614.35 268.76 609.18 267.97 603.88 267.44 598.52 267.16 593.18 267.16 587.94 267.42 582.88 267.94 578.07 268.72 573.6 269.74 569.53 270.99 565.91 272.44 562.81 274.09 560.28 275.89 558.34 277.83 557.03 279.87 556.37 281.99 556.37 284.15 557.03 286.32 558.34 288.47 560.28 290.55 562.81 292.55 565.91 294.44 569.53 296.17 573.6 297.73 578.07 299.1 582.88 300.25 587.94 301.16 593.18 301.82 598.52 302.23 603.88 302.37 609.18 302.24 614.35 301.85 619.29 301.2 623.93 300.3 628.21 299.16 632.07 297.81 635.43 296.25 638.25 294.52 640.5 292.65 642.12 290.65 643.11 288.57 643.44 286.43"/>
      <line class="cls-1" x1="537.11" y1="348.71" x2="537.11" y2="206.38"/>
      <line class="cls-1" x1="399.04" y1="272.3" x2="679.26" y2="272.3"/>
      <rect class="cls-5" x="399.04" y="206.38" width="280.22" height="142.33"/>
    </g>
  </g>
  <g id="_Окружение" data-name="Окружение">
    <text class="cls-16" transform="translate(52.34 165.59)"><tspan x="0" y="0">−0.6</tspan></text>
    <text class="cls-16" transform="translate(52.34 130.62)"><tspan x="0" y="0">−0.3</tspan></text>
    <text class="cls-16" transform="translate(57.6 95.65)"><tspan x="0" y="0">0.0</tspan></text>
    <text class="cls-16" transform="translate(57.6 60.68)"><tspan x="0" y="0">0.3</tspan></text>
    <line class="cls-3" x1="72.3" y1="162.36" x2="75.04" y2="162.36"/>
    <line class="cls-3" x1="72.3" y1="127.39" x2="75.04" y2="127.39"/>
    <line class="cls-3" x1="72.3" y1="92.42" x2="75.04" y2="92.42"/>
    <line class="cls-3" x1="72.3" y1="57.44" x2="75.04" y2="57.44"/>
    <line class="cls-3" x1="131.59" y1="171.57" x2="131.59" y2="168.83"/>
    <line class="cls-3" x1="213.11" y1="171.57" x2="213.11" y2="168.83"/>
    <line class="cls-3" x1="294.63" y1="171.57" x2="294.63" y2="168.83"/>
    <text class="cls-16" transform="translate(122.71 180.22)"><tspan x="0" y="0">−0.4</tspan></text>
    <text class="cls-16" transform="translate(206.86 180.22)"><tspan x="0" y="0">0.0</tspan></text>
    <text class="cls-16" transform="translate(288.38 180.22)"><tspan x="0" y="0">0.4</tspan></text>
    <text class="cls-13" transform="translate(182.43 193.02)"><tspan x="0" y="0">Ось 1 (43%)</tspan></text>
    <text class="cls-13" transform="translate(50.12 123.1) rotate(-90)"><tspan x="0" y="0">Ось 2 (25%)</tspan></text>
    <g class="cls-9">
      <rect class="cls-17" x="75.04" y="206.38" width="280.22" height="142.33"/>
      <path class="cls-19" d="m158.84,262.79c0-1.37,1.12-2.49,2.49-2.49s2.49,1.12,2.49,2.49-1.12,2.49-2.49,2.49-2.49-1.12-2.49-2.49"/>
      <path class="cls-4" d="m158.84,262.79c0-1.37,1.12-2.49,2.49-2.49s2.49,1.12,2.49,2.49-1.12,2.49-2.49,2.49-2.49-1.12-2.49-2.49"/>
      <path class="cls-19" d="m155.19,256.7c0-1.36,1.12-2.48,2.49-2.48s2.48,1.12,2.48,2.48-1.11,2.49-2.48,2.49-2.49-1.12-2.49-2.49"/>
      <path class="cls-4" d="m155.19,256.7c0-1.36,1.12-2.48,2.49-2.48s2.48,1.12,2.48,2.48-1.11,2.49-2.48,2.49-2.49-1.12-2.49-2.49"/>
      <path class="cls-19" d="m154.8,256.38c0-1.37,1.12-2.49,2.48-2.49s2.49,1.12,2.49,2.49-1.12,2.48-2.49,2.48-2.48-1.12-2.48-2.48"/>
      <path class="cls-4" d="m154.8,256.38c0-1.37,1.12-2.49,2.48-2.49s2.49,1.12,2.49,2.49-1.12,2.48-2.49,2.48-2.48-1.12-2.48-2.48"/>
      <path class="cls-19" d="m145.45,260.37c0-1.37,1.12-2.49,2.49-2.49s2.49,1.12,2.49,2.49-1.12,2.49-2.49,2.49-2.49-1.12-2.49-2.49"/>
      <path class="cls-4" d="m145.45,260.37c0-1.37,1.12-2.49,2.49-2.49s2.49,1.12,2.49,2.49-1.12,2.49-2.49,2.49-2.49-1.12-2.49-2.49"/>
      <path class="cls-19" d="m149.25,258.18c0-1.36,1.12-2.48,2.49-2.48s2.48,1.12,2.48,2.48-1.12,2.49-2.48,2.49-2.49-1.12-2.49-2.49"/>
      <path class="cls-4" d="m149.25,258.18c0-1.36,1.12-2.48,2.49-2.48s2.48,1.12,2.48,2.48-1.12,2.49-2.48,2.49-2.49-1.12-2.49-2.49"/>
      <path class="cls-19" d="m151.67,254.88c0-1.37,1.12-2.49,2.48-2.49s2.49,1.12,2.49,2.49-1.12,2.49-2.49,2.49-2.48-1.12-2.48-2.49"/>
      <path class="cls-4" d="m151.67,254.88c0-1.37,1.12-2.49,2.48-2.49s2.49,1.12,2.49,2.49-1.12,2.49-2.49,2.49-2.48-1.12-2.48-2.49"/>
      <path class="cls-19" d="m126.48,263.07c0-1.37,1.12-2.48,2.49-2.48s2.48,1.11,2.48,2.48-1.12,2.49-2.48,2.49-2.49-1.12-2.49-2.49"/>
      <path class="cls-4" d="m126.48,263.07c0-1.37,1.12-2.48,2.49-2.48s2.48,1.11,2.48,2.48-1.12,2.49-2.48,2.49-2.49-1.12-2.49-2.49"/>
      <path class="cls-18" d="m305.82,258.04c0-1.37,1.12-2.49,2.49-2.49s2.49,1.12,2.49,2.49-1.12,2.49-2.49,2.49-2.49-1.12-2.49-2.49"/>
      <path class="cls-4" d="m305.82,258.04c0-1.37,1.12-2.49,2.49-2.49s2.49,1.12,2.49,2.49-1.12,2.49-2.49,2.49-2.49-1.12-2.49-2.49"/>
      <path class="cls-18" d="m284.26,229.1c0-1.37,1.12-2.49,2.49-2.49s2.49,1.12,2.49,2.49-1.12,2.49-2.49,2.49-2.49-1.12-2.49-2.49"/>
      <path class="cls-4" d="m284.26,229.1c0-1.37,1.12-2.49,2.49-2.49s2.49,1.12,2.49,2.49-1.12,2.49-2.49,2.49-2.49-1.12-2.49-2.49"/>
      <path class="cls-18" d="m306.37,234.74c0-1.37,1.12-2.49,2.49-2.49s2.48,1.12,2.48,2.49-1.12,2.49-2.48,2.49-2.49-1.12-2.49-2.49"/>
      <path class="cls-4" d="m306.37,234.74c0-1.37,1.12-2.49,2.49-2.49s2.48,1.12,2.48,2.49-1.12,2.49-2.48,2.49-2.49-1.12-2.49-2.49"/>
      <path class="cls-18" d="m293.77,241.26c0-1.37,1.12-2.49,2.48-2.49s2.49,1.12,2.49,2.49-1.12,2.49-2.49,2.49-2.48-1.12-2.48-2.49"/>
      <path class="cls-4" d="m293.77,241.26c0-1.37,1.12-2.49,2.48-2.49s2.49,1.12,2.49,2.49-1.12,2.49-2.49,2.49-2.48-1.12-2.48-2.49"/>
      <path class="cls-18" d="m306.09,232.76c0-1.37,1.12-2.49,2.49-2.49s2.49,1.12,2.49,2.49-1.12,2.49-2.49,2.49-2.49-1.12-2.49-2.49"/>
      <path class="cls-4" d="m306.09,232.76c0-1.37,1.12-2.49,2.49-2.49s2.49,1.12,2.49,2.49-1.12,2.49-2.49,2.49-2.49-1.12-2.49-2.49"/>
      <path class="cls-18" d="m306.55,237.22c0-1.37,1.12-2.49,2.48-2.49s2.49,1.12,2.49,2.49-1.12,2.49-2.49,2.49-2.48-1.12-2.48-2.49"/>
      <path class="cls-4" d="m306.55,237.22c0-1.37,1.12-2.49,2.48-2.49s2.49,1.12,2.49,2.49-1.12,2.49-2.49,2.49-2.48-1.12-2.48-2.49"/>
      <path class="cls-18" d="m303.92,244.57c0-1.37,1.12-2.49,2.49-2.49s2.48,1.12,2.48,2.49-1.12,2.48-2.48,2.48-2.49-1.11-2.49-2.48"/>
      <path class="cls-4" d="m303.92,244.57c0-1.37,1.12-2.49,2.49-2.49s2.48,1.12,2.48,2.49-1.12,2.48-2.48,2.48-2.49-1.11-2.49-2.48"/>
      <polygon class="cls-19" points="149.56 277.53 152.91 283.34 146.21 283.34 149.56 277.53"/>
      <polygon class="cls-4" points="149.56 277.53 152.91 283.34 146.21 283.34 149.56 277.53"/>
      <polygon class="cls-19" points="142.74 268.77 146.09 274.57 139.39 274.57 142.74 268.77"/>
      <polygon class="cls-4" points="142.74 268.77 146.09 274.57 139.39 274.57 142.74 268.77"/>
      <polygon class="cls-19" points="147.44 267.32 150.79 273.12 144.09 273.12 147.44 267.32"/>
      <polygon class="cls-4" points="147.44 267.32 150.79 273.12 144.09 273.12 147.44 267.32"/>
      <polygon class="cls-19" points="134.22 264.63 137.57 270.43 130.87 270.43 134.22 264.63"/>
      <polygon class="cls-4" points="134.22 264.63 137.57 270.43 130.87 270.43 134.22 264.63"/>
      <polygon class="cls-19" points="141.18 267.91 144.53 273.71 137.83 273.71 141.18 267.91"/>
      <polygon class="cls-4" points="141.18 267.91 144.53 273.71 137.83 273.71 141.18 267.91"/>
      <polygon class="cls-19" points="144.63 258.86 147.98 264.66 141.27 264.66 144.63 258.86"/>
      <polygon class="cls-4" points="144.63 258.86 147.98 264.66 141.27 264.66 144.63 258.86"/>
      <polygon class="cls-19" points="136.42 264.88 139.77 270.68 133.07 270.68 136.42 264.88"/>
      <polygon class="cls-4" points="136.42 264.88 139.77 270.68 133.07 270.68 136.42 264.88"/>
      <polygon class="cls-18" points="234 313.4 237.35 319.21 230.65 319.21 234 313.4"/>
      <polygon class="cls-4" points="234 313.4 237.35 319.21 230.65 319.21 234 313.4"/>
      <polygon class="cls-18" points="261.35 318.82 264.7 324.62 258 324.62 261.35 318.82"/>
      <polygon class="cls-4" points="261.35 318.82 264.7 324.62 258 324.62 261.35 318.82"/>
      <polygon class="cls-18" points="252.85 324.25 256.2 330.06 249.5 330.06 252.85 324.25"/>
      <polygon class="cls-4" points="252.85 324.25 256.2 330.06 249.5 330.06 252.85 324.25"/>
      <polygon class="cls-18" points="240.5 305.42 243.85 311.23 237.15 311.23 240.5 305.42"/>
      <polygon class="cls-4" points="240.5 305.42 243.85 311.23 237.15 311.23 240.5 305.42"/>
      <polygon class="cls-18" points="258.73 311.62 262.08 317.43 255.38 317.43 258.73 311.62"/>
      <polygon class="cls-4" points="258.73 311.62 262.08 317.43 255.38 317.43 258.73 311.62"/>
      <polygon class="cls-18" points="251.62 325.03 254.97 330.84 248.27 330.84 251.62 325.03"/>
      <polygon class="cls-4" points="251.62 325.03 254.97 330.84 248.27 330.84 251.62 325.03"/>
      <polygon class="cls-18" points="288.61 311.61 291.96 317.42 285.26 317.42 288.61 311.61"/>
      <polygon class="cls-4" points="288.61 311.61 291.96 317.42 285.26 317.42 288.61 311.61"/>
      <polyline class="cls-6" points="176.21 253.6 176.03 252.82 175.5 252.12 174.62 251.51 173.4 251 171.87 250.6 170.05 250.31 167.97 250.14 165.65 250.09 163.14 250.17 160.46 250.36 157.67 250.67 154.8 251.09 151.9 251.62 149 252.25 146.17 252.97 143.43 253.76 140.83 254.62 138.41 255.54 136.2 256.49 134.24 257.47 132.57 258.45 131.19 259.43 130.14 260.4 129.44 261.32 129.08 262.2 129.08 263.02 129.44 263.76 130.14 264.41 131.19 264.97 132.57 265.43 134.24 265.78 136.2 266.01 138.41 266.12 140.83 266.1 143.43 265.97 146.17 265.72 149 265.35 151.9 264.87 154.8 264.29 157.67 263.62 160.46 262.86 163.14 262.03 165.65 261.15 167.97 260.21 170.05 259.24 171.87 258.26 173.4 257.27 174.62 256.3 175.5 255.35 176.03 254.45 176.21 253.6"/>
      <polyline class="cls-6" points="326.62 244.38 326.45 241.47 325.96 238.51 325.14 235.57 324.02 232.69 322.6 229.9 320.91 227.25 318.98 224.79 316.83 222.54 314.5 220.55 312.02 218.84 309.43 217.43 306.77 216.36 304.08 215.64 301.4 215.27 298.77 215.26 296.23 215.62 293.82 216.34 291.57 217.4 289.53 218.79 287.72 220.49 286.16 222.48 284.89 224.72 283.91 227.18 283.26 229.82 282.93 232.6 282.93 235.49 283.26 238.43 283.91 241.38 284.89 244.3 286.16 247.14 287.72 249.86 289.53 252.42 291.57 254.78 293.82 256.91 296.23 258.76 298.77 260.32 301.4 261.56 304.08 262.46 306.77 263.01 309.43 263.2 312.02 263.02 314.5 262.48 316.83 261.59 318.98 260.36 320.91 258.81 322.6 256.97 324.02 254.85 325.14 252.5 325.96 249.94 326.45 247.22 326.62 244.38"/>
      <polyline class="cls-6" points="157.17 277.76 157.05 276.29 156.7 274.74 156.13 273.13 155.33 271.49 154.33 269.84 153.14 268.22 151.77 266.63 150.26 265.12 148.61 263.69 146.86 262.37 145.03 261.19 143.15 260.15 141.25 259.28 139.35 258.59 137.5 258.09 135.7 257.78 134 257.68 132.41 257.78 130.97 258.08 129.69 258.57 128.59 259.26 127.69 260.12 127 261.15 126.54 262.33 126.31 263.64 126.31 265.07 126.54 266.58 127 268.16 127.69 269.79 128.59 271.44 129.69 273.08 130.97 274.68 132.41 276.24 134 277.71 135.7 279.09 137.5 280.34 139.35 281.45 141.25 282.41 143.15 283.19 145.03 283.79 146.86 284.19 148.61 284.4 150.26 284.4 151.77 284.2 153.14 283.8 154.33 283.21 155.33 282.44 156.13 281.49 156.7 280.38 157.05 279.13 157.17 277.76"/>
      <polyline class="cls-6" points="298.61 321.79 298.27 319.21 297.27 316.65 295.61 314.14 293.33 311.72 290.45 309.43 287.03 307.31 283.11 305.38 278.75 303.68 274.02 302.23 268.99 301.05 263.73 300.16 258.34 299.58 252.88 299.31 247.44 299.36 242.1 299.73 236.95 300.41 232.06 301.38 227.51 302.65 223.36 304.18 219.68 305.95 216.52 307.94 213.94 310.12 211.96 312.45 210.63 314.9 209.96 317.44 209.96 320.01 210.63 322.59 211.96 325.13 213.94 327.6 216.52 329.96 219.68 332.17 223.36 334.2 227.51 336.01 232.06 337.59 236.95 338.91 242.1 339.94 247.44 340.68 252.88 341.11 258.34 341.22 263.73 341.01 268.99 340.49 274.02 339.66 278.75 338.53 283.11 337.13 287.03 335.48 290.45 333.59 293.33 331.5 295.61 329.24 297.27 326.85 298.27 324.35 298.61 321.79"/>
      <line class="cls-1" x1="213.11" y1="348.71" x2="213.11" y2="206.38"/>
      <line class="cls-1" x1="75.04" y1="272.3" x2="355.26" y2="272.3"/>
      <rect class="cls-5" x="75.04" y="206.38" width="280.22" height="142.33"/>
    </g>
    <text class="cls-16" transform="translate(52.34 345.47)"><tspan x="0" y="0">−0.6</tspan></text>
    <text class="cls-16" transform="translate(52.34 310.5)"><tspan x="0" y="0">−0.3</tspan></text>
    <text class="cls-16" transform="translate(57.6 275.53)"><tspan x="0" y="0">0.0</tspan></text>
    <text class="cls-16" transform="translate(57.6 240.56)"><tspan x="0" y="0">0.3</tspan></text>
    <line class="cls-3" x1="72.3" y1="342.24" x2="75.04" y2="342.24"/>
    <line class="cls-3" x1="72.3" y1="307.27" x2="75.04" y2="307.27"/>
    <line class="cls-3" x1="72.3" y1="272.3" x2="75.04" y2="272.3"/>
    <line class="cls-3" x1="72.3" y1="237.32" x2="75.04" y2="237.32"/>
    <line class="cls-3" x1="131.59" y1="351.45" x2="131.59" y2="348.71"/>
    <line class="cls-3" x1="213.11" y1="351.45" x2="213.11" y2="348.71"/>
    <line class="cls-3" x1="294.63" y1="351.45" x2="294.63" y2="348.71"/>
    <text class="cls-16" transform="translate(122.71 360.1)"><tspan x="0" y="0">−0.4</tspan></text>
    <text class="cls-16" transform="translate(206.86 360.1)"><tspan x="0" y="0">0.0</tspan></text>
    <text class="cls-16" transform="translate(288.38 360.1)"><tspan x="0" y="0">0.4</tspan></text>
    <text class="cls-13" transform="translate(182.43 372.9)"><tspan x="0" y="0">Ось 1 (43%)</tspan></text>
    <text class="cls-13" transform="translate(50.12 302.98) rotate(-90)"><tspan x="0" y="0">Ось 2 (25%)</tspan></text>
    <text class="cls-11" transform="translate(13.73 155.04) rotate(-90)"><tspan x="0" y="0">Динамическая</tspan><tspan x="15.68" y="13">плотность</tspan></text>
    <text class="cls-11" transform="translate(20.23 325.05) rotate(-90)"><tspan x="0" y="0">Доли видов</tspan></text>
    <g>
      <g class="cls-22">
        <rect class="cls-17" x="399.04" y="26.5" width="280.22" height="142.33"/>
        <path class="cls-19" d="m476.41,56.41c0-1.36,1.12-2.48,2.48-2.48s2.49,1.12,2.49,2.48-1.12,2.49-2.49,2.49-2.48-1.12-2.48-2.49"/>
        <path class="cls-4" d="m476.41,56.41c0-1.36,1.12-2.48,2.48-2.48s2.49,1.12,2.49,2.48-1.12,2.49-2.49,2.49-2.48-1.12-2.48-2.49"/>
        <path class="cls-19" d="m486.86,59.58c0-1.37,1.12-2.49,2.48-2.49s2.49,1.12,2.49,2.49-1.12,2.49-2.49,2.49-2.48-1.12-2.48-2.49"/>
        <path class="cls-4" d="m486.86,59.58c0-1.37,1.12-2.49,2.48-2.49s2.49,1.12,2.49,2.49-1.12,2.49-2.49,2.49-2.48-1.12-2.48-2.49"/>
        <path class="cls-19" d="m489.53,68.18c0-1.37,1.12-2.49,2.49-2.49s2.49,1.12,2.49,2.49-1.12,2.49-2.49,2.49-2.49-1.12-2.49-2.49"/>
        <path class="cls-4" d="m489.53,68.18c0-1.37,1.12-2.49,2.49-2.49s2.49,1.12,2.49,2.49-1.12,2.49-2.49,2.49-2.49-1.12-2.49-2.49"/>
        <path class="cls-19" d="m467.57,71.97c0-1.37,1.12-2.49,2.48-2.49s2.49,1.12,2.49,2.49-1.12,2.49-2.49,2.49-2.48-1.12-2.48-2.49"/>
        <path class="cls-4" d="m467.57,71.97c0-1.37,1.12-2.49,2.48-2.49s2.49,1.12,2.49,2.49-1.12,2.49-2.49,2.49-2.48-1.12-2.48-2.49"/>
        <path class="cls-19" d="m471.57,64.08c0-1.37,1.12-2.49,2.49-2.49s2.49,1.12,2.49,2.49-1.12,2.49-2.49,2.49-2.49-1.12-2.49-2.49"/>
        <path class="cls-4" d="m471.57,64.08c0-1.37,1.12-2.49,2.49-2.49s2.49,1.12,2.49,2.49-1.12,2.49-2.49,2.49-2.49-1.12-2.49-2.49"/>
        <path class="cls-19" d="m480.85,58.44c0-1.36,1.12-2.48,2.48-2.48s2.49,1.12,2.49,2.48-1.12,2.49-2.49,2.49-2.48-1.12-2.48-2.49"/>
        <path class="cls-4" d="m480.85,58.44c0-1.36,1.12-2.48,2.48-2.48s2.49,1.12,2.49,2.48-1.12,2.49-2.49,2.49-2.48-1.12-2.48-2.49"/>
        <path class="cls-19" d="m476.02,55.03c0-1.37,1.12-2.49,2.49-2.49s2.49,1.12,2.49,2.49-1.12,2.49-2.49,2.49-2.49-1.12-2.49-2.49"/>
        <path class="cls-4" d="m476.02,55.03c0-1.37,1.12-2.49,2.49-2.49s2.49,1.12,2.49,2.49-1.12,2.49-2.49,2.49-2.49-1.12-2.49-2.49"/>
        <path class="cls-18" d="m579.13,100.41c0-1.37,1.12-2.49,2.49-2.49s2.49,1.12,2.49,2.49-1.12,2.49-2.49,2.49-2.49-1.12-2.49-2.49"/>
        <path class="cls-4" d="m579.13,100.41c0-1.37,1.12-2.49,2.49-2.49s2.49,1.12,2.49,2.49-1.12,2.49-2.49,2.49-2.49-1.12-2.49-2.49"/>
        <path class="cls-18" d="m565.81,95.48c0-1.37,1.12-2.49,2.48-2.49s2.49,1.12,2.49,2.49-1.12,2.49-2.49,2.49-2.48-1.12-2.48-2.49"/>
        <path class="cls-4" d="m565.81,95.48c0-1.37,1.12-2.49,2.48-2.49s2.49,1.12,2.49,2.49-1.12,2.49-2.49,2.49-2.48-1.12-2.48-2.49"/>
        <path class="cls-18" d="m571.25,98.61c0-1.37,1.12-2.49,2.49-2.49s2.49,1.12,2.49,2.49-1.12,2.49-2.49,2.49-2.49-1.12-2.49-2.49"/>
        <path class="cls-4" d="m571.25,98.61c0-1.37,1.12-2.49,2.49-2.49s2.49,1.12,2.49,2.49-1.12,2.49-2.49,2.49-2.49-1.12-2.49-2.49"/>
        <path class="cls-18" d="m594.42,83.69c0-1.36,1.12-2.48,2.49-2.48s2.49,1.12,2.49,2.48-1.12,2.49-2.49,2.49-2.49-1.12-2.49-2.49"/>
        <path class="cls-4" d="m594.42,83.69c0-1.36,1.12-2.48,2.49-2.48s2.49,1.12,2.49,2.48-1.12,2.49-2.49,2.49-2.49-1.12-2.49-2.49"/>
        <path class="cls-18" d="m597.08,86.31c0-1.37,1.12-2.49,2.49-2.49s2.49,1.12,2.49,2.49-1.12,2.49-2.49,2.49-2.49-1.12-2.49-2.49"/>
        <path class="cls-4" d="m597.08,86.31c0-1.37,1.12-2.49,2.49-2.49s2.49,1.12,2.49,2.49-1.12,2.49-2.49,2.49-2.49-1.12-2.49-2.49"/>
        <path class="cls-18" d="m604.78,76.62c0-1.37,1.12-2.49,2.49-2.49s2.49,1.12,2.49,2.49-1.12,2.49-2.49,2.49-2.49-1.12-2.49-2.49"/>
        <path class="cls-4" d="m604.78,76.62c0-1.37,1.12-2.49,2.49-2.49s2.49,1.12,2.49,2.49-1.12,2.49-2.49,2.49-2.49-1.12-2.49-2.49"/>
        <path class="cls-18" d="m599.37,85.58c0-1.37,1.12-2.49,2.49-2.49s2.49,1.12,2.49,2.49-1.12,2.49-2.49,2.49-2.49-1.12-2.49-2.49"/>
        <path class="cls-4" d="m599.37,85.58c0-1.37,1.12-2.49,2.49-2.49s2.49,1.12,2.49,2.49-1.12,2.49-2.49,2.49-2.49-1.12-2.49-2.49"/>
        <polygon class="cls-19" points="455.15 111.62 458.5 117.43 451.8 117.43 455.15 111.62"/>
        <polygon class="cls-4" points="455.15 111.62 458.5 117.43 451.8 117.43 455.15 111.62"/>
        <polygon class="cls-19" points="496.33 115.47 499.68 121.27 492.98 121.27 496.33 115.47"/>
        <polygon class="cls-4" points="496.33 115.47 499.68 121.27 492.98 121.27 496.33 115.47"/>
        <polygon class="cls-19" points="499.32 124.38 502.67 130.19 495.97 130.19 499.32 124.38"/>
        <polygon class="cls-4" points="499.32 124.38 502.67 130.19 495.97 130.19 499.32 124.38"/>
        <polygon class="cls-19" points="447.77 107.39 451.12 113.19 444.42 113.19 447.77 107.39"/>
        <polygon class="cls-4" points="447.77 107.39 451.12 113.19 444.42 113.19 447.77 107.39"/>
        <polygon class="cls-19" points="467.45 122.31 470.8 128.11 464.1 128.11 467.45 122.31"/>
        <polygon class="cls-4" points="467.45 122.31 470.8 128.11 464.1 128.11 467.45 122.31"/>
        <polygon class="cls-19" points="459.47 116.85 462.82 122.66 456.12 122.66 459.47 116.85"/>
        <polygon class="cls-4" points="459.47 116.85 462.82 122.66 456.12 122.66 459.47 116.85"/>
        <polygon class="cls-19" points="459.34 115.27 462.7 121.08 455.99 121.08 459.34 115.27"/>
        <polygon class="cls-4" points="459.34 115.27 462.7 121.08 455.99 121.08 459.34 115.27"/>
        <polygon class="cls-18" points="600.65 96.41 604 102.22 597.3 102.22 600.65 96.41"/>
        <polygon class="cls-4" points="600.65 96.41 604 102.22 597.3 102.22 600.65 96.41"/>
        <polygon class="cls-18" points="605.13 93.8 608.48 99.6 601.78 99.6 605.13 93.8"/>
        <polygon class="cls-4" points="605.13 93.8 608.48 99.6 601.78 99.6 605.13 93.8"/>
        <polygon class="cls-18" points="615.29 91.71 618.64 97.52 611.94 97.52 615.29 91.71"/>
        <polygon class="cls-4" points="615.29 91.71 618.64 97.52 611.94 97.52 615.29 91.71"/>
        <polygon class="cls-18" points="612.79 87.14 616.15 92.94 609.44 92.94 612.79 87.14"/>
        <polygon class="cls-4" points="612.79 87.14 616.15 92.94 609.44 92.94 612.79 87.14"/>
        <polygon class="cls-18" points="602.58 110.89 605.93 116.7 599.23 116.7 602.58 110.89"/>
        <polygon class="cls-4" points="602.58 110.89 605.93 116.7 599.23 116.7 602.58 110.89"/>
        <polygon class="cls-18" points="622 82.24 625.35 88.05 618.65 88.05 622 82.24"/>
        <polygon class="cls-4" points="622 82.24 625.35 88.05 618.65 88.05 622 82.24"/>
        <polygon class="cls-18" points="600.36 97.59 603.71 103.39 597.01 103.39 600.36 97.59"/>
        <polygon class="cls-4" points="600.36 97.59 603.71 103.39 597.01 103.39 600.36 97.59"/>
        <polyline class="cls-6" points="501.79 57.89 501.63 55.88 501.16 53.94 500.38 52.11 499.3 50.41 497.95 48.86 496.33 47.49 494.49 46.32 492.43 45.37 490.21 44.66 487.84 44.19 485.36 43.96 482.82 43.99 480.25 44.28 477.69 44.81 475.18 45.59 472.75 46.59 470.45 47.81 468.3 49.23 466.35 50.82 464.62 52.55 463.13 54.42 461.91 56.37 460.99 58.4 460.36 60.46 460.04 62.52 460.04 64.56 460.36 66.53 460.99 68.42 461.91 70.19 463.13 71.82 464.62 73.28 466.35 74.55 468.3 75.61 470.45 76.45 472.75 77.04 475.18 77.39 477.69 77.49 480.25 77.33 482.82 76.92 485.36 76.26 487.84 75.37 490.21 74.25 492.43 72.94 494.49 71.43 496.33 69.76 497.95 67.96 499.3 66.05 500.38 64.05 501.16 62.01 501.63 59.94 501.79 57.89"/>
        <polyline class="cls-6" points="634.07 66.42 633.75 65.25 632.8 64.43 631.22 63.97 629.05 63.89 626.32 64.19 623.06 64.86 619.33 65.88 615.19 67.25 610.69 68.95 605.9 70.94 600.91 73.21 595.78 75.7 590.58 78.4 585.41 81.24 580.34 84.2 575.44 87.23 570.79 90.28 566.46 93.3 562.52 96.26 559.02 99.09 556.01 101.77 553.56 104.25 551.68 106.5 550.41 108.47 549.78 110.14 549.78 111.49 550.41 112.49 551.68 113.13 553.56 113.39 556.01 113.28 559.02 112.8 562.52 111.95 566.46 110.75 570.79 109.22 575.44 107.37 580.34 105.24 585.41 102.85 590.58 100.25 595.78 97.48 600.91 94.57 605.9 91.57 610.69 88.52 615.19 85.48 619.33 82.49 623.06 79.59 626.32 76.82 629.05 74.24 631.22 71.87 632.8 69.76 633.75 67.93 634.07 66.42"/>
        <polyline class="cls-6" points="519.34 130.94 518.93 129.4 517.72 127.71 515.71 125.9 512.95 124 509.48 122.03 505.34 120.02 500.6 118.01 495.33 116.03 489.61 114.1 483.52 112.26 477.17 110.52 470.65 108.93 464.05 107.5 457.47 106.26 451.02 105.22 444.79 104.39 438.88 103.8 433.37 103.45 428.36 103.35 423.91 103.49 420.09 103.88 416.97 104.51 414.58 105.37 412.97 106.44 412.16 107.72 412.16 109.18 412.97 110.8 414.58 112.55 416.97 114.41 420.09 116.35 423.91 118.34 428.36 120.35 433.37 122.35 438.88 124.31 444.79 126.2 451.02 127.99 457.47 129.65 464.05 131.17 470.65 132.51 477.17 133.65 483.52 134.59 489.61 135.3 495.33 135.77 500.6 135.99 505.34 135.97 509.48 135.71 512.95 135.2 515.71 134.45 517.72 133.48 518.93 132.3 519.34 130.94"/>
        <polyline class="cls-6" points="632.36 79.91 632.18 78.51 631.64 77.39 630.74 76.56 629.5 76.04 627.95 75.84 626.09 75.95 623.97 76.38 621.61 77.12 619.04 78.15 616.32 79.47 613.47 81.05 610.55 82.87 607.59 84.9 604.65 87.12 601.76 89.48 598.97 91.94 596.32 94.49 593.85 97.07 591.6 99.64 589.61 102.17 587.9 104.62 586.5 106.95 585.43 109.13 584.71 111.12 584.35 112.89 584.35 114.42 584.71 115.69 585.43 116.66 586.5 117.34 587.9 117.7 589.61 117.75 591.6 117.48 593.85 116.89 596.32 116 598.97 114.82 601.76 113.37 604.65 111.67 607.59 109.74 610.55 107.61 613.47 105.32 616.32 102.9 619.04 100.39 621.61 97.83 623.97 95.25 626.09 92.69 627.95 90.19 629.5 87.8 630.74 85.54 631.64 83.45 632.18 81.57 632.36 79.91"/>
        <line class="cls-1" x1="537.11" y1="168.83" x2="537.11" y2="26.5"/>
        <line class="cls-1" x1="399.04" y1="92.42" x2="679.26" y2="92.42"/>
        <rect class="cls-5" x="399.04" y="26.5" width="280.22" height="142.33"/>
      </g>
      <text class="cls-16" transform="translate(376.34 165.59)"><tspan x="0" y="0">−0.6</tspan></text>
      <text class="cls-16" transform="translate(376.34 130.62)"><tspan x="0" y="0">−0.3</tspan></text>
      <text class="cls-16" transform="translate(381.6 95.65)"><tspan x="0" y="0">0.0</tspan></text>
      <text class="cls-16" transform="translate(381.6 60.68)"><tspan x="0" y="0">0.3</tspan></text>
      <line class="cls-3" x1="396.3" y1="162.36" x2="399.04" y2="162.36"/>
      <line class="cls-3" x1="396.3" y1="127.39" x2="399.04" y2="127.39"/>
      <line class="cls-3" x1="396.3" y1="92.42" x2="399.04" y2="92.42"/>
      <line class="cls-3" x1="396.3" y1="57.44" x2="399.04" y2="57.44"/>
      <line class="cls-3" x1="455.59" y1="171.57" x2="455.59" y2="168.83"/>
      <line class="cls-3" x1="537.11" y1="171.57" x2="537.11" y2="168.83"/>
      <line class="cls-3" x1="618.63" y1="171.57" x2="618.63" y2="168.83"/>
      <text class="cls-16" transform="translate(446.71 180.22)"><tspan x="0" y="0">−0.4</tspan></text>
      <text class="cls-16" transform="translate(530.86 180.22)"><tspan x="0" y="0">0.0</tspan></text>
      <text class="cls-16" transform="translate(612.38 180.22)"><tspan x="0" y="0">0.4</tspan></text>
      <text class="cls-13" transform="translate(506.43 193.02)"><tspan x="0" y="0">Ось 1 (60%)</tspan></text>
      <text class="cls-13" transform="translate(374.12 123.1) rotate(-90)"><tspan x="0" y="0">Ось 2 (22%)</tspan></text>
    </g>
    <text class="cls-16" transform="translate(376.34 345.47)"><tspan x="0" y="0">−0.6</tspan></text>
    <text class="cls-16" transform="translate(376.34 310.5)"><tspan x="0" y="0">−0.3</tspan></text>
    <text class="cls-16" transform="translate(381.6 275.53)"><tspan x="0" y="0">0.0</tspan></text>
    <text class="cls-16" transform="translate(381.6 240.56)"><tspan x="0" y="0">0.3</tspan></text>
    <line class="cls-3" x1="396.3" y1="342.24" x2="399.04" y2="342.24"/>
    <line class="cls-3" x1="396.3" y1="307.27" x2="399.04" y2="307.27"/>
    <line class="cls-3" x1="396.3" y1="272.3" x2="399.04" y2="272.3"/>
    <line class="cls-3" x1="396.3" y1="237.32" x2="399.04" y2="237.32"/>
    <line class="cls-3" x1="455.59" y1="351.45" x2="455.59" y2="348.71"/>
    <line class="cls-3" x1="537.11" y1="351.45" x2="537.11" y2="348.71"/>
    <line class="cls-3" x1="618.63" y1="351.45" x2="618.63" y2="348.71"/>
    <text class="cls-16" transform="translate(446.71 360.1)"><tspan x="0" y="0">−0.4</tspan></text>
    <text class="cls-16" transform="translate(530.86 360.1)"><tspan x="0" y="0">0.0</tspan></text>
    <text class="cls-16" transform="translate(612.38 360.1)"><tspan x="0" y="0">0.4</tspan></text>
    <text class="cls-13" transform="translate(506.43 372.9)"><tspan x="0" y="0">Ось 1 (81%)</tspan></text>
    <text class="cls-13" transform="translate(374.12 299.92) rotate(-90)"><tspan x="0" y="0">Ось 2 (6%)</tspan></text>
    <text class="cls-10" transform="translate(166.35 17.16)"><tspan x="0" y="0">A</tspan><tspan class="cls-23" x="14.44" y="0">r</tspan><tspan x="22.03" y="0">achnida</tspan></text>
    <text class="cls-10" transform="translate(490.9 17.16)"><tspan x="0" y="0">Ca</tspan><tspan class="cls-23" x="25.57" y="0">r</tspan><tspan x="33.15" y="0">abidae</tspan></text>
    <g>
      <text class="cls-15" transform="translate(139.4 406.84)"><tspan x="0" y="0">Год</tspan></text>
      <path class="cls-4" d="m177.85,401.78c0-1.76,1.44-3.19,3.19-3.19s3.19,1.44,3.19,3.19-1.44,3.19-3.19,3.19-3.19-1.44-3.19-3.19"/>
      <polygon class="cls-4" points="242.23 396.82 246.53 404.26 237.94 404.26 242.23 396.82"/>
      <text class="cls-14" transform="translate(199.14 405.92)"><tspan x="0" y="0">2005</tspan></text>
      <text class="cls-14" transform="translate(260.33 405.92)"><tspan x="0" y="0">2018</tspan></text>
      <text class="cls-15" transform="translate(313.42 406.84)"><tspan x="0" y="0">Зона</tspan></text>
      <text class="cls-12" transform="translate(381.34 406.16)"><tspan x="0" y="0">фоновая</tspan></text>
      <text class="cls-14" transform="translate(469.52 406.16)"><tspan x="0" y="0">импактная</tspan></text>
      <rect class="cls-8" x="359.7" y="399.19" width="7.77" height="7.77"/>
      <rect class="cls-7" x="447.54" y="399.19" width="7.77" height="7.77"/>
    </g>
  </g>
</svg>