<?xml version="1.0" encoding="UTF-8"?>
<svg xmlns="http://www.w3.org/2000/svg" viewBox="0 0 647.28 573.32">
  <defs>
    <style>
      .cls-1, .cls-2, .cls-3 {
        font-family: Arial-BoldMT, Arial;
        font-weight: 700;
      }

      .cls-1, .cls-3 {
        font-size: 13px;
      }

      .cls-4 {
        letter-spacing: 0em;
      }

      .cls-2 {
        fill: #1a1a1a;
        font-size: 20px;
      }

      .cls-5 {
        font-size: 11.73px;
      }

      .cls-5, .cls-6, .cls-7, .cls-8 {
        font-family: ArialMT, Arial;
      }

      .cls-9, .cls-10 {
        stroke-width: 0px;
      }

      .cls-6 {
        font-size: 14.34px;
        letter-spacing: -.02em;
      }

      .cls-11 {
        stroke-dasharray: 0 0 4.27 4.27;
      }

      .cls-11, .cls-12, .cls-13, .cls-14, .cls-15, .cls-16 {
        fill: none;
        stroke-linejoin: round;
      }

      .cls-11, .cls-12, .cls-13, .cls-14, .cls-16 {
        stroke-width: 1.07px;
      }

      .cls-11, .cls-15, .cls-16 {
        stroke: #000;
      }

      .cls-7 {
        font-size: 11px;
      }

      .cls-12 {
        opacity: .5;
        stroke: #bebebe;
      }

      .cls-13, .cls-14 {
        stroke: #333;
      }

      .cls-10 {
        fill: #fff;
      }

      .cls-3 {
        letter-spacing: 0em;
      }

      .cls-14, .cls-15 {
        stroke-linecap: round;
      }

      .cls-17 {
        letter-spacing: -.03em;
      }

      .cls-18 {
        letter-spacing: -.03em;
      }

      .cls-19 {
        letter-spacing: -.01em;
      }

      .cls-8 {
        fill: #4d4d4d;
        font-size: 9px;
      }

      .cls-15 {
        stroke-width: 1.42px;
      }

      .cls-20 {
        letter-spacing: -.01em;
      }
    </style>
  </defs>
  <g id="_Рамка" data-name="Рамка">
    <line class="cls-14" x1="7.5" y1="529.79" x2="294.79" y2="529.79"/>
    <line class="cls-14" x1="327.39" y1="529.79" x2="641.8" y2="529.79"/>
    <line class="cls-11" x1="171.22" y1="529.79" x2="171.22" y2="37.45"/>
    <line class="cls-11" x1="491.11" y1="529.79" x2="491.11" y2="35.26"/>
    <g id="_Пробелы" data-name="Пробелы">
      <rect class="cls-10" y="106.41" width="647.28" height="17"/>
      <rect class="cls-10" y="192.34" width="647.28" height="17"/>
      <rect class="cls-10" y="252.13" width="647.28" height="17"/>
      <rect class="cls-10" y="320.25" width="647.28" height="17"/>
      <rect class="cls-10" y="378.87" width="647.28" height="17"/>
      <rect class="cls-10" x="326.97" y="439.26" width="320.32" height="17"/>
      <rect class="cls-10" y="29.86" width="647.28" height="15"/>
    </g>
    <g id="_В" data-name="В">
      <line class="cls-12" x1="64.7" y1="389.96" x2="297.5" y2="389.96"/>
      <line class="cls-12" x1="59.14" y1="326.81" x2="297.5" y2="326.81"/>
      <line class="cls-12" x1="62.49" y1="263.67" x2="297.5" y2="263.67"/>
      <line class="cls-12" x1="67.58" y1="200.52" x2="297.5" y2="200.52"/>
      <line class="cls-12" x1="40.08" y1="116.33" x2="297.5" y2="116.33"/>
      <line class="cls-12" x1="167.66" y1="32.13" x2="297.5" y2="32.13"/>
      <line class="cls-12" x1="351.8" y1="389.96" x2="586.3" y2="389.96"/>
      <line class="cls-12" x1="351.8" y1="326.81" x2="591.28" y2="326.81"/>
      <line class="cls-12" x1="351.8" y1="263.67" x2="586.3" y2="263.67"/>
      <line class="cls-12" x1="351.8" y1="200.52" x2="580.87" y2="200.52"/>
      <line class="cls-12" x1="351.8" y1="116.33" x2="608.26" y2="116.33"/>
      <line class="cls-12" x1="351.8" y1="32.13" x2="476.2" y2="32.13"/>
      <line class="cls-12" x1="351.8" y1="453.1" x2="590.46" y2="453.1"/>
    </g>
  </g>
  <g id="_Подписи" data-name="Подписи">
    <text class="cls-2" transform="translate(122.42 17.16)"><tspan x="0" y="0">A</tspan><tspan class="cls-20" x="14.44" y="0">r</tspan><tspan x="22.03" y="0">achnida</tspan></text>
    <text class="cls-2" transform="translate(442.86 17.16)"><tspan x="0" y="0">Ca</tspan><tspan class="cls-20" x="25.57" y="0">r</tspan><tspan x="33.15" y="0">abidae</tspan></text>
    <line class="cls-13" x1="15.33" y1="532.53" x2="15.33" y2="529.79"/>
    <line class="cls-13" x1="93.28" y1="532.53" x2="93.28" y2="529.79"/>
    <line class="cls-13" x1="171.22" y1="532.53" x2="171.22" y2="529.79"/>
    <line class="cls-13" x1="249.16" y1="532.53" x2="249.16" y2="529.79"/>
    <text class="cls-8" transform="translate(10.2 541.18)"><tspan x="0" y="0">−8</tspan></text>
    <text class="cls-8" transform="translate(88.15 541.18)"><tspan x="0" y="0">−4</tspan></text>
    <text class="cls-8" transform="translate(168.72 541.18)"><tspan x="0" y="0">0</tspan></text>
    <text class="cls-8" transform="translate(246.66 541.18)"><tspan x="0" y="0">4</tspan></text>
    <line class="cls-13" x1="335.23" y1="532.53" x2="335.23" y2="529.79"/>
    <line class="cls-13" x1="413.17" y1="532.53" x2="413.17" y2="529.79"/>
    <line class="cls-13" x1="491.11" y1="532.53" x2="491.11" y2="529.79"/>
    <line class="cls-13" x1="569.05" y1="532.53" x2="569.05" y2="529.79"/>
    <text class="cls-8" transform="translate(330.1 541.18)"><tspan x="0" y="0">−8</tspan></text>
    <text class="cls-8" transform="translate(408.04 541.18)"><tspan x="0" y="0">−4</tspan></text>
    <text class="cls-8" transform="translate(488.61 541.18)"><tspan x="0" y="0">0</tspan></text>
    <text class="cls-8" transform="translate(566.55 541.18)"><tspan x="0" y="0">4</tspan></text>
    <g>
      <text class="cls-6" transform="translate(246.57 563.1)"><tspan x="0" y="0">Год</tspan></text>
      <line class="cls-16" x1="301.58" y1="557.95" x2="283.57" y2="557.95"/>
      <rect class="cls-9" x="289.29" y="554.67" width="6.57" height="6.57"/>
      <rect class="cls-15" x="289.29" y="554.67" width="6.57" height="6.57"/>
      <line class="cls-16" x1="364.5" y1="557.95" x2="346.48" y2="557.95"/>
      <rect class="cls-10" x="352.21" y="554.67" width="6.57" height="6.57"/>
      <rect class="cls-15" x="352.21" y="554.67" width="6.57" height="6.57"/>
      <text class="cls-5" transform="translate(310.98 562.16)"><tspan x="0" y="0">2005</tspan></text>
      <text class="cls-5" transform="translate(373.9 562.16)"><tspan x="0" y="0">2018</tspan></text>
    </g>
  </g>
  <g id="_Ядро" data-name="Ядро">
    <g>
      <line class="cls-16" x1="197.98" y1="407.7" x2="224.6" y2="407.7"/>
      <line class="cls-16" x1="174.04" y1="414.71" x2="203.56" y2="414.71"/>
      <rect class="cls-9" x="208.77" y="405.18" width="5.04" height="5.04"/>
      <rect class="cls-15" x="208.77" y="405.18" width="5.04" height="5.04"/>
      <rect class="cls-10" x="186.28" y="412.19" width="5.04" height="5.04"/>
      <rect class="cls-15" x="186.28" y="412.19" width="5.04" height="5.04"/>
    </g>
    <g>
      <line class="cls-16" x1="157.08" y1="428.75" x2="169.01" y2="428.75"/>
      <line class="cls-16" x1="168.22" y1="435.76" x2="181.01" y2="435.76"/>
      <rect class="cls-9" x="160.53" y="426.23" width="5.04" height="5.04"/>
      <rect class="cls-15" x="160.53" y="426.23" width="5.04" height="5.04"/>
      <rect class="cls-10" x="172.09" y="433.24" width="5.04" height="5.04"/>
      <rect class="cls-15" x="172.09" y="433.24" width="5.04" height="5.04"/>
    </g>
    <g>
      <line class="cls-16" x1="82.67" y1="449.78" x2="140.62" y2="449.78"/>
      <line class="cls-16" x1="60.22" y1="456.8" x2="113.62" y2="456.8"/>
      <rect class="cls-9" x="109.12" y="447.26" width="5.04" height="5.04"/>
      <rect class="cls-15" x="109.12" y="447.26" width="5.04" height="5.04"/>
      <rect class="cls-10" x="84.4" y="454.28" width="5.04" height="5.04"/>
      <rect class="cls-15" x="84.4" y="454.28" width="5.04" height="5.04"/>
    </g>
    <g>
      <line class="cls-16" x1="52.15" y1="470.83" x2="129.19" y2="470.83"/>
      <line class="cls-16" x1="125.34" y1="477.85" x2="162.7" y2="477.85"/>
      <rect class="cls-9" x="88.15" y="468.31" width="5.04" height="5.04"/>
      <rect class="cls-15" x="88.15" y="468.31" width="5.04" height="5.04"/>
      <rect class="cls-10" x="141.5" y="475.33" width="5.04" height="5.04"/>
      <rect class="cls-15" x="141.5" y="475.33" width="5.04" height="5.04"/>
    </g>
    <text class="cls-7" transform="translate(621.95 56.31)"><tspan x="0" y="0">AD</tspan></text>
    <text class="cls-7" transform="translate(623.77 77.36)"><tspan x="0" y="0">Sp</tspan></text>
    <text class="cls-7" transform="translate(621.67 98.41)"><tspan x="0" y="0">Sp&apos;</tspan></text>
    <text class="cls-7" transform="translate(629.89 140.51)"><tspan x="0" y="0">S</tspan></text>
    <text class="cls-7" transform="translate(628.06 161.55)"><tspan x="0" y="0">M</tspan></text>
    <text class="cls-7" transform="translate(629.89 182.6)"><tspan x="0" y="0">B</tspan></text>
    <text class="cls-7" transform="translate(619.82 224.7)"><tspan class="cls-18" x="0" y="0">h</tspan><tspan x="5.79" y="0">yg</tspan></text>
    <text class="cls-7" transform="translate(616.45 245.75)"><tspan x="0" y="0">mes</tspan></text>
    <text class="cls-7" transform="translate(623.77 287.85)"><tspan x="0" y="0">LS</tspan></text>
    <text class="cls-7" transform="translate(622.55 308.89)"><tspan x="0" y="0">SS</tspan></text>
    <text class="cls-7" transform="translate(630.51 350.99)"><tspan x="0" y="0">F</tspan></text>
    <text class="cls-7" transform="translate(629.89 372.04)"><tspan x="0" y="0">E</tspan></text>
    <text class="cls-7" transform="translate(10.9 56.31)"><tspan x="0" y="0">AD</tspan></text>
    <text class="cls-7" transform="translate(10.88 77.36)"><tspan x="0" y="0">Sp</tspan></text>
    <text class="cls-7" transform="translate(10.88 98.41)"><tspan x="0" y="0">Sp&apos;</tspan></text>
    <text class="cls-7" transform="translate(10.88 140.51)"><tspan x="0" y="0">S</tspan></text>
    <text class="cls-7" transform="translate(10.88 161.55)"><tspan x="0" y="0">M</tspan></text>
    <text class="cls-7" transform="translate(10.88 182.6)"><tspan x="0" y="0">B</tspan></text>
    <text class="cls-7" transform="translate(10.88 224.7)"><tspan class="cls-18" x="0" y="0">h</tspan><tspan x="5.79" y="0">yg</tspan></text>
    <text class="cls-7" transform="translate(10.88 245.75)"><tspan x="0" y="0">mes</tspan></text>
    <text class="cls-7" transform="translate(10.88 287.85)"><tspan x="0" y="0">LS</tspan></text>
    <text class="cls-7" transform="translate(10.88 308.89)"><tspan x="0" y="0">SS</tspan></text>
    <text class="cls-7" transform="translate(10.88 350.99)"><tspan x="0" y="0">F</tspan></text>
    <text class="cls-7" transform="translate(10.88 372.04)"><tspan x="0" y="0">E</tspan></text>
    <text class="cls-7" transform="translate(10.88 414.14)"><tspan x="0" y="0">H</tspan></text>
    <text class="cls-7" transform="translate(10.88 435.19)"><tspan x="0" y="0">W</tspan></text>
    <text class="cls-7" transform="translate(10.88 456.23)"><tspan x="0" y="0">WH</tspan></text>
    <text class="cls-7" transform="translate(10.88 477.28)"><tspan x="0" y="0">SH</tspan></text>
    <g>
      <line class="cls-16" x1="157.05" y1="49.86" x2="166.84" y2="49.86"/>
      <line class="cls-16" x1="150.26" y1="56.88" x2="159.66" y2="56.88"/>
      <rect class="cls-9" x="159.42" y="47.34" width="5.04" height="5.04"/>
      <rect class="cls-15" x="159.42" y="47.34" width="5.04" height="5.04"/>
      <rect class="cls-10" x="152.44" y="54.36" width="5.04" height="5.04"/>
      <rect class="cls-15" x="152.44" y="54.36" width="5.04" height="5.04"/>
      <line class="cls-16" x1="469.06" y1="49.86" x2="474.82" y2="49.86"/>
      <line class="cls-16" x1="472.72" y1="56.88" x2="479.84" y2="56.88"/>
      <rect class="cls-9" x="469.42" y="47.34" width="5.04" height="5.04"/>
      <rect class="cls-15" x="469.42" y="47.34" width="5.04" height="5.04"/>
      <rect class="cls-10" x="473.76" y="54.36" width="5.04" height="5.04"/>
      <rect class="cls-15" x="473.76" y="54.36" width="5.04" height="5.04"/>
    </g>
    <g>
      <line class="cls-16" x1="166.26" y1="70.91" x2="173.48" y2="70.91"/>
      <line class="cls-16" x1="164.45" y1="77.93" x2="172.57" y2="77.93"/>
      <rect class="cls-9" x="167.35" y="68.39" width="5.04" height="5.04"/>
      <rect class="cls-15" x="167.35" y="68.39" width="5.04" height="5.04"/>
      <rect class="cls-10" x="165.99" y="75.41" width="5.04" height="5.04"/>
      <rect class="cls-15" x="165.99" y="75.41" width="5.04" height="5.04"/>
      <line class="cls-16" x1="477.73" y1="70.91" x2="486.46" y2="70.91"/>
      <line class="cls-16" x1="470.96" y1="77.93" x2="476.78" y2="77.93"/>
      <rect class="cls-9" x="479.58" y="68.39" width="5.04" height="5.04"/>
      <rect class="cls-15" x="479.58" y="68.39" width="5.04" height="5.04"/>
      <rect class="cls-10" x="471.35" y="75.41" width="5.04" height="5.04"/>
      <rect class="cls-15" x="471.35" y="75.41" width="5.04" height="5.04"/>
    </g>
    <g>
      <line class="cls-16" x1="167.4" y1="91.96" x2="173.91" y2="91.96"/>
      <line class="cls-16" x1="166.49" y1="98.98" x2="174.61" y2="98.98"/>
      <rect class="cls-9" x="168.13" y="89.44" width="5.04" height="5.04"/>
      <rect class="cls-15" x="168.13" y="89.44" width="5.04" height="5.04"/>
      <rect class="cls-10" x="168.03" y="96.46" width="5.04" height="5.04"/>
      <rect class="cls-15" x="168.03" y="96.46" width="5.04" height="5.04"/>
      <line class="cls-16" x1="482.57" y1="91.96" x2="490.35" y2="91.96"/>
      <line class="cls-16" x1="474.01" y1="98.98" x2="478.98" y2="98.98"/>
      <rect class="cls-9" x="483.94" y="89.44" width="5.04" height="5.04"/>
      <rect class="cls-15" x="483.94" y="89.44" width="5.04" height="5.04"/>
      <rect class="cls-10" x="473.98" y="96.46" width="5.04" height="5.04"/>
      <rect class="cls-15" x="473.98" y="96.46" width="5.04" height="5.04"/>
    </g>
    <g>
      <line class="cls-16" x1="155.05" y1="134.06" x2="166.82" y2="134.06"/>
      <line class="cls-16" x1="168.25" y1="141.08" x2="179.75" y2="141.08"/>
      <rect class="cls-9" x="158.42" y="131.54" width="5.04" height="5.04"/>
      <rect class="cls-15" x="158.42" y="131.54" width="5.04" height="5.04"/>
      <rect class="cls-10" x="171.48" y="138.56" width="5.04" height="5.04"/>
      <rect class="cls-15" x="171.48" y="138.56" width="5.04" height="5.04"/>
      <line class="cls-16" x1="462" y1="134.06" x2="472.28" y2="134.06"/>
      <line class="cls-16" x1="466.39" y1="141.08" x2="474.31" y2="141.08"/>
      <rect class="cls-9" x="464.62" y="131.54" width="5.04" height="5.04"/>
      <rect class="cls-15" x="464.62" y="131.54" width="5.04" height="5.04"/>
      <rect class="cls-10" x="467.83" y="138.56" width="5.04" height="5.04"/>
      <rect class="cls-15" x="467.83" y="138.56" width="5.04" height="5.04"/>
    </g>
    <g>
      <line class="cls-16" x1="137.9" y1="155.11" x2="154.79" y2="155.11"/>
      <line class="cls-16" x1="119.37" y1="162.12" x2="142.28" y2="162.12"/>
      <rect class="cls-9" x="143.83" y="152.59" width="5.04" height="5.04"/>
      <rect class="cls-15" x="143.83" y="152.59" width="5.04" height="5.04"/>
      <rect class="cls-10" x="128.3" y="159.6" width="5.04" height="5.04"/>
      <rect class="cls-15" x="128.3" y="159.6" width="5.04" height="5.04"/>
      <line class="cls-16" x1="477.41" y1="155.11" x2="487.56" y2="155.11"/>
      <line class="cls-16" x1="497.99" y1="162.12" x2="510.94" y2="162.12"/>
      <rect class="cls-9" x="479.97" y="152.59" width="5.04" height="5.04"/>
      <rect class="cls-15" x="479.97" y="152.59" width="5.04" height="5.04"/>
      <rect class="cls-10" x="501.95" y="159.6" width="5.04" height="5.04"/>
      <rect class="cls-15" x="501.95" y="159.6" width="5.04" height="5.04"/>
    </g>
    <g>
      <line class="cls-16" x1="198.08" y1="176.16" x2="225.36" y2="176.16"/>
      <line class="cls-16" x1="161.11" y1="183.17" x2="188.31" y2="183.17"/>
      <rect class="cls-9" x="209.2" y="173.64" width="5.04" height="5.04"/>
      <rect class="cls-15" x="209.2" y="173.64" width="5.04" height="5.04"/>
      <rect class="cls-10" x="172.19" y="180.65" width="5.04" height="5.04"/>
      <rect class="cls-15" x="172.19" y="180.65" width="5.04" height="5.04"/>
      <line class="cls-16" x1="350.9" y1="176.16" x2="375.82" y2="176.16"/>
      <line class="cls-16" x1="341.68" y1="183.17" x2="364.43" y2="183.17"/>
      <rect class="cls-9" x="360.84" y="173.64" width="5.04" height="5.04"/>
      <rect class="cls-15" x="360.84" y="173.64" width="5.04" height="5.04"/>
      <rect class="cls-10" x="350.54" y="180.65" width="5.04" height="5.04"/>
      <rect class="cls-15" x="350.54" y="180.65" width="5.04" height="5.04"/>
    </g>
    <g>
      <line class="cls-16" x1="156.74" y1="239.3" x2="166.96" y2="239.3"/>
      <line class="cls-16" x1="150.85" y1="246.32" x2="160.07" y2="246.32"/>
      <rect class="cls-9" x="159.33" y="236.78" width="5.04" height="5.04"/>
      <rect class="cls-15" x="159.33" y="236.78" width="5.04" height="5.04"/>
      <rect class="cls-10" x="152.94" y="243.8" width="5.04" height="5.04"/>
      <rect class="cls-15" x="152.94" y="243.8" width="5.04" height="5.04"/>
      <line class="cls-16" x1="480.2" y1="239.3" x2="486.71" y2="239.3"/>
      <line class="cls-16" x1="484.57" y1="246.32" x2="493.04" y2="246.32"/>
      <rect class="cls-9" x="480.93" y="236.78" width="5.04" height="5.04"/>
      <rect class="cls-15" x="480.93" y="236.78" width="5.04" height="5.04"/>
      <rect class="cls-10" x="486.29" y="243.8" width="5.04" height="5.04"/>
      <rect class="cls-15" x="486.29" y="243.8" width="5.04" height="5.04"/>
    </g>
    <g>
      <line class="cls-16" x1="154.32" y1="281.4" x2="165.25" y2="281.4"/>
      <line class="cls-16" x1="166.55" y1="288.42" x2="177.82" y2="288.42"/>
      <rect class="cls-9" x="157.26" y="278.88" width="5.04" height="5.04"/>
      <rect class="cls-15" x="157.26" y="278.88" width="5.04" height="5.04"/>
      <rect class="cls-10" x="169.67" y="285.9" width="5.04" height="5.04"/>
      <rect class="cls-15" x="169.67" y="285.9" width="5.04" height="5.04"/>
      <line class="cls-16" x1="469.46" y1="281.4" x2="475.22" y2="281.4"/>
      <line class="cls-16" x1="475.08" y1="288.42" x2="482.36" y2="288.42"/>
      <rect class="cls-9" x="469.82" y="278.88" width="5.04" height="5.04"/>
      <rect class="cls-15" x="469.82" y="278.88" width="5.04" height="5.04"/>
      <rect class="cls-10" x="476.2" y="285.9" width="5.04" height="5.04"/>
      <rect class="cls-15" x="476.2" y="285.9" width="5.04" height="5.04"/>
    </g>
    <g>
      <line class="cls-16" x1="156.88" y1="302.44" x2="170.2" y2="302.44"/>
      <line class="cls-16" x1="116.53" y1="309.46" x2="141.8" y2="309.46"/>
      <rect class="cls-9" x="161.02" y="299.92" width="5.04" height="5.04"/>
      <rect class="cls-15" x="161.02" y="299.92" width="5.04" height="5.04"/>
      <rect class="cls-10" x="126.65" y="306.94" width="5.04" height="5.04"/>
      <rect class="cls-15" x="126.65" y="306.94" width="5.04" height="5.04"/>
      <line class="cls-16" x1="368.43" y1="302.44" x2="393.25" y2="302.44"/>
      <line class="cls-16" x1="356.33" y1="309.46" x2="378.61" y2="309.46"/>
      <rect class="cls-9" x="378.32" y="299.92" width="5.04" height="5.04"/>
      <rect class="cls-15" x="378.32" y="299.92" width="5.04" height="5.04"/>
      <rect class="cls-10" x="364.95" y="306.94" width="5.04" height="5.04"/>
      <rect class="cls-15" x="364.95" y="306.94" width="5.04" height="5.04"/>
    </g>
    <g>
      <line class="cls-16" x1="156.07" y1="344.55" x2="169.61" y2="344.55"/>
      <line class="cls-16" x1="149.89" y1="351.57" x2="160.42" y2="351.57"/>
      <rect class="cls-9" x="160.32" y="342.03" width="5.04" height="5.04"/>
      <rect class="cls-15" x="160.32" y="342.03" width="5.04" height="5.04"/>
      <rect class="cls-10" x="152.64" y="349.05" width="5.04" height="5.04"/>
      <rect class="cls-15" x="152.64" y="349.05" width="5.04" height="5.04"/>
      <line class="cls-16" x1="480.18" y1="344.55" x2="486.7" y2="344.55"/>
      <line class="cls-16" x1="487.79" y1="351.57" x2="496.63" y2="351.57"/>
      <rect class="cls-9" x="480.92" y="342.03" width="5.04" height="5.04"/>
      <rect class="cls-15" x="480.92" y="342.03" width="5.04" height="5.04"/>
      <rect class="cls-10" x="489.69" y="349.05" width="5.04" height="5.04"/>
      <rect class="cls-15" x="489.69" y="349.05" width="5.04" height="5.04"/>
    </g>
    <g>
      <line class="cls-16" x1="154.11" y1="365.6" x2="163.07" y2="365.6"/>
      <line class="cls-16" x1="144.29" y1="372.62" x2="166.35" y2="372.62"/>
      <rect class="cls-9" x="156.07" y="363.08" width="5.04" height="5.04"/>
      <rect class="cls-15" x="156.07" y="363.08" width="5.04" height="5.04"/>
      <rect class="cls-10" x="152.8" y="370.09" width="5.04" height="5.04"/>
      <rect class="cls-15" x="152.8" y="370.09" width="5.04" height="5.04"/>
      <line class="cls-16" x1="448.29" y1="365.6" x2="461.85" y2="365.6"/>
      <line class="cls-16" x1="447.69" y1="372.62" x2="460.17" y2="372.62"/>
      <rect class="cls-9" x="452.55" y="363.08" width="5.04" height="5.04"/>
      <rect class="cls-15" x="452.55" y="363.08" width="5.04" height="5.04"/>
      <rect class="cls-10" x="451.41" y="370.09" width="5.04" height="5.04"/>
      <rect class="cls-15" x="451.41" y="370.09" width="5.04" height="5.04"/>
    </g>
    <g>
      <line class="cls-16" x1="465.25" y1="407.7" x2="471.28" y2="407.7"/>
      <line class="cls-16" x1="471.52" y1="414.71" x2="478.47" y2="414.71"/>
      <rect class="cls-9" x="465.75" y="405.18" width="5.04" height="5.04"/>
      <rect class="cls-15" x="465.75" y="405.18" width="5.04" height="5.04"/>
      <rect class="cls-10" x="472.47" y="412.19" width="5.04" height="5.04"/>
      <rect class="cls-15" x="472.47" y="412.19" width="5.04" height="5.04"/>
    </g>
    <g>
      <line class="cls-16" x1="510.61" y1="428.75" x2="564.42" y2="428.75"/>
      <line class="cls-16" x1="568.01" y1="435.76" x2="612.91" y2="435.76"/>
      <rect class="cls-9" x="535" y="426.23" width="5.04" height="5.04"/>
      <rect class="cls-15" x="535" y="426.23" width="5.04" height="5.04"/>
      <rect class="cls-10" x="587.94" y="433.24" width="5.04" height="5.04"/>
      <rect class="cls-15" x="587.94" y="433.24" width="5.04" height="5.04"/>
    </g>
    <text class="cls-7" transform="translate(630.51 414.14)"><tspan x="0" y="0">Z</tspan></text>
    <text class="cls-7" transform="translate(622.56 435.19)"><tspan x="0" y="0">Mx</tspan></text>
    <g>
      <line class="cls-16" x1="446" y1="470.09" x2="457.56" y2="470.09"/>
      <line class="cls-16" x1="456.38" y1="477.11" x2="463.88" y2="477.11"/>
      <rect class="cls-9" x="449.26" y="467.57" width="5.04" height="5.04"/>
      <rect class="cls-15" x="449.26" y="467.57" width="5.04" height="5.04"/>
      <rect class="cls-10" x="457.61" y="474.59" width="5.04" height="5.04"/>
      <rect class="cls-15" x="457.61" y="474.59" width="5.04" height="5.04"/>
    </g>
    <g>
      <line class="cls-16" x1="487.75" y1="491.14" x2="499.1" y2="491.14"/>
      <line class="cls-16" x1="498.86" y1="498.16" x2="512.83" y2="498.16"/>
      <rect class="cls-9" x="490.91" y="488.62" width="5.04" height="5.04"/>
      <rect class="cls-15" x="490.91" y="488.62" width="5.04" height="5.04"/>
      <rect class="cls-10" x="503.32" y="495.64" width="5.04" height="5.04"/>
      <rect class="cls-15" x="503.32" y="495.64" width="5.04" height="5.04"/>
    </g>
    <g>
      <line class="cls-16" x1="508.55" y1="512.19" x2="556.86" y2="512.19"/>
      <line class="cls-16" x1="471.98" y1="519.21" x2="516.89" y2="519.21"/>
      <rect class="cls-9" x="530.19" y="509.67" width="5.04" height="5.04"/>
      <rect class="cls-15" x="530.19" y="509.67" width="5.04" height="5.04"/>
      <rect class="cls-10" x="491.91" y="516.69" width="5.04" height="5.04"/>
      <rect class="cls-15" x="491.91" y="516.69" width="5.04" height="5.04"/>
    </g>
    <text class="cls-7" transform="translate(625.62 477.55)"><tspan x="0" y="0">lm</tspan></text>
    <text class="cls-7" transform="translate(618.9 498.6)"><tspan x="0" y="0">mm</tspan></text>
    <text class="cls-7" transform="translate(621.95 519.65)"><tspan x="0" y="0">hm</tspan></text>
    <text class="cls-1" transform="translate(593.16 456.23)"><tspan x="0" y="0">Mobility</tspan></text>
    <text class="cls-1" transform="translate(590.62 393.09)"><tspan class="cls-17" x="0" y="0">F</tspan><tspan x="7.56" y="0">eeding</tspan></text>
    <text class="cls-1" transform="translate(10.88 393.09)"><tspan x="0" y="0">Hunting</tspan></text>
    <text class="cls-1" transform="translate(593.17 329.94)"><tspan x="0" y="0">Habitat</tspan></text>
    <text class="cls-1" transform="translate(588.24 266.8)"><tspan x="0" y="0">St</tspan><tspan class="cls-4" x="13" y="0">r</tspan><tspan x="17.93" y="0">atum</tspan></text>
    <text class="cls-3" transform="translate(583.37 203.65)"><tspan x="0" y="0">Moisture</tspan></text>
    <text class="cls-1" transform="translate(611.41 119.46)"><tspan x="0" y="0">Si</tspan><tspan class="cls-19" x="12.28" y="0">z</tspan><tspan x="18.59" y="0">e</tspan></text>
    <text class="cls-1" transform="translate(482.15 35.26)"><tspan x="0" y="0">Обилие и разнообразие</tspan></text>
    <text class="cls-1" transform="translate(10.88 329.94)"><tspan x="0" y="0">Habitat</tspan></text>
    <text class="cls-1" transform="translate(10.88 266.8)"><tspan x="0" y="0">St</tspan><tspan class="cls-4" x="13" y="0">r</tspan><tspan x="17.93" y="0">atum</tspan></text>
    <text class="cls-3" transform="translate(10.88 203.65)"><tspan x="0" y="0">Moisture</tspan></text>
    <text class="cls-1" transform="translate(10.88 119.46)"><tspan x="0" y="0">Si</tspan><tspan class="cls-19" x="12.28" y="0">z</tspan><tspan x="18.59" y="0">e</tspan></text>
    <text class="cls-1" transform="translate(10.88 35.26)"><tspan x="0" y="0">Обилие и разнообразие</tspan></text>
    <g>
      <line class="cls-16" x1="140.94" y1="218.26" x2="180.44" y2="218.26"/>
      <line class="cls-16" x1="82.88" y1="225.27" x2="162.57" y2="225.27"/>
      <rect class="cls-9" x="158.17" y="215.74" width="5.04" height="5.04"/>
      <rect class="cls-15" x="158.17" y="215.74" width="5.04" height="5.04"/>
      <rect class="cls-10" x="120.21" y="222.75" width="5.04" height="5.04"/>
      <rect class="cls-15" x="120.21" y="222.75" width="5.04" height="5.04"/>
      <line class="cls-16" x1="450.78" y1="218.26" x2="463.93" y2="218.26"/>
      <rect class="cls-9" x="454.83" y="215.74" width="5.04" height="5.04"/>
      <rect class="cls-15" x="454.83" y="215.74" width="5.04" height="5.04"/>
      <rect class="cls-10" x="455.94" y="222.75" width="5.04" height="5.04"/>
      <rect class="cls-15" x="455.94" y="222.75" width="5.04" height="5.04"/>
      <line class="cls-16" x1="452.74" y1="225.27" x2="464.17" y2="225.27"/>
    </g>
  </g>
</svg>